<?xml version="1.0" encoding="UTF-8"?>
<svg width="164px" height="161px" viewBox="0 0 164 161" version="1.1" xmlns="http://www.w3.org/2000/svg" xmlns:xlink="http://www.w3.org/1999/xlink">
    <title>icon_services_advice_blue</title>
    <g id="Page-1" stroke="none" stroke-width="1" fill="none" fill-rule="evenodd" stroke-linecap="round" stroke-linejoin="round">
        <g id="Extra-Large" transform="translate(-878, -2180)" stroke="#03368C" stroke-width="6">
            <g id="Our-services" transform="translate(160, 1392)">
                <g id="Advice" transform="translate(560, 791)">
                    <g id="icon_services_advice_blue" transform="translate(161, 0)">
                        <path d="M136.6,24.1 L157.6,24.1 M147,13.8 L147,34.4 M38.2,10.3 L59.2,10.3 M48.7,0 L48.7,20.6 M0,41.3 L21,41.3 M10.6,31 L10.6,51.6 M136.6,130.3 L131.7,130.3 C139.4,130.3 145,136.5 143.6,144 C142.9,150.2 137.3,154.3 131,154.3 L85.5,154.3 C82.7,154.3 79.2,154.3 76.4,153.6 L39.3,147.4 L0.1,147.4 M136.6,81 L141.5,81 C148.5,81 154.1,75.5 154.1,68.7 C154.1,61.9 148.5,56.4 141.5,56.4 L99.5,56.4 L100.2,55 C107.2,43.3 111.4,29.6 112.1,15.2 C112.8,10.4 110.7,6.3 106.5,3.5 C103.7,1.4 100.9,1.4 97.4,2.1 C93.9,2.8 91.1,4.8 89.7,7.6 C75.4,32.1 65.9,62.9 41.4,80.3 L0.1,80.3 M136.6,130.3 L138.7,130.3 C145.7,130.3 151.3,124.8 151.3,118 C151.3,111.2 145.7,105.7 138.7,105.7 L136.6,105.7 M136.6,81 L145,81 C152,81 157.6,86.5 157.6,93.3 C157.6,100.1 152,105.6 145,105.6 L136.6,105.6" id="Shape"></path>
                    </g>
                </g>
            </g>
        </g>
    </g>
</svg>