<?xml version="1.0" encoding="UTF-8"?>
<svg width="164px" height="109px" viewBox="0 0 164 109" version="1.1" xmlns="http://www.w3.org/2000/svg" xmlns:xlink="http://www.w3.org/1999/xlink">
    <title>icon_services_delivery_blue</title>
    <g id="Page-1" stroke="none" stroke-width="1" fill="none" fill-rule="evenodd" stroke-linecap="round" stroke-linejoin="round">
        <g id="Extra-Large" transform="translate(-1438, -1634)" stroke="#03368C" stroke-width="6">
            <g id="Our-services" transform="translate(160, 1392)">
                <g id="Delivery" transform="translate(1120, 245)">
                    <g id="icon_services_delivery_blue" transform="translate(161, 0)">
                        <path d="M78.8,92.5 L99.8,92.5 M115.6,87.4 C115.6,95.9 122.7,102.8 131.4,102.8 C140.1,102.8 147.2,95.9 147.2,87.4 C147.2,78.9 140.1,72 131.4,72 C122.7,72 115.6,78.9 115.6,87.4 Z M31.6,87.4 C31.6,95.9 38.7,102.8 47.4,102.8 C56.1,102.8 63.2,95.9 63.2,87.4 C63.2,78.9 56.1,72 47.4,72 C38.7,72 31.6,78.9 31.6,87.4 Z M0,51.4 L21,51.4 C26.8,51.4 31.5,46.8 31.5,41.1 L31.5,10.3 M52.6,51.4 L52.6,10.3 L31.6,10.3 C14.2,10.3 0.1,24.1 0.1,41.1 L0.1,82.2 C0.1,87.9 4.8,92.5 10.6,92.5 L15.8,92.5 M157.6,61.7 L157.6,10.3 C157.6,4.6 152.9,0 147.1,0 L52.6,0 C57.3,0 52.6,4.6 52.6,10.3 L52.6,51.4" id="Shape"></path>
                    </g>
                </g>
            </g>
        </g>
    </g>
</svg>