<?xml version="1.0" encoding="UTF-8"?>
<svg width="160px" height="170px" viewBox="0 0 160 170" version="1.1" xmlns="http://www.w3.org/2000/svg" xmlns:xlink="http://www.w3.org/1999/xlink">
    <title>icon_services_fineWine_blue</title>
    <g id="Page-1" stroke="none" stroke-width="1" fill="none" fill-rule="evenodd" stroke-linecap="round" stroke-linejoin="round">
        <g id="Extra-Large" transform="translate(-880, -1604)" stroke="#03368C" stroke-width="6">
            <g id="Our-services" transform="translate(160, 1392)">
                <g id="Fine-wine-list" transform="translate(560, 215)">
                    <g id="icon_services_fineWine_blue" transform="translate(163, 0)">
                        <path d="M117.426477,52.2 C115.926477,53.4 113.726477,52.8 113.026477,51 L110.326477,43.7 C107.226477,35.4 109.826477,26.1 116.926477,20.5 L122.526477,16.1 C124.026477,14.9 126.226477,15.5 126.926477,17.3 L129.626477,24.6 C132.726477,32.9 130.126477,42.2 123.026477,47.7 C123.026477,47.7 117.426477,52.1 117.426477,52.1 L117.426477,52.2 Z M36.2264768,52.2 C37.7264768,53.4 39.9264768,52.8 40.6264768,51 L43.3264768,43.7 C46.4264768,35.4 43.8264768,26.1 36.7264768,20.5 L31.1264768,16.1 C29.6264768,14.9 27.4264768,15.5 26.7264768,17.3 L24.0264768,24.6 C20.9264768,32.9 23.5264768,42.2 30.6264768,47.7 C30.6264768,47.7 36.2264768,52.1 36.2264768,52.1 L36.2264768,52.2 Z M127.926477,89.7 C125.626477,90.2 123.426477,88.3 123.726477,86 L124.626477,77.4 C125.626477,68.6 132.226477,61.4 141.026477,59.5 L148.826477,57.8 C151.126477,57.3 153.326477,59.2 153.026477,61.5 L152.126477,70.1 C151.126477,78.9 144.526477,86.1 135.726477,88 L127.926477,89.7 L127.926477,89.7 L127.926477,89.7 Z M25.7264768,89.7 C28.0264768,90.2 30.2264768,88.3 29.9264768,86 L29.0264768,77.4 C28.0264768,68.6 21.5264768,61.4 12.6264768,59.5 L4.82647681,57.8 C2.52647681,57.3 0.326476812,59.2 0.626476812,61.5 L1.52647681,70.1 C2.52647681,78.9 9.02647681,86.1 17.9264768,88 C17.9264768,88 25.7264768,89.7 25.7264768,89.7 L25.7264768,89.7 Z M116.526477,132.9 C114.126477,132.6 112.726477,130.2 113.726477,128 L118.526477,117.8 C122.326477,109.8 130.926477,105 139.926477,106 L150.526477,107.1 C152.926477,107.4 154.326477,109.8 153.326477,112 L148.526477,122.2 C144.726477,130.2 136.126477,135 127.126477,134 L116.526477,132.9 L116.526477,132.9 Z M37.1264768,132.9 C39.5264768,132.6 40.9264768,130.2 39.9264768,128 L35.1264768,117.8 C31.3264768,109.8 22.7264768,105 13.7264768,106 L3.12647681,107.1 C0.726476812,107.4 -0.673523188,109.8 0.326476812,112 L5.12647681,122.2 C8.92647681,130.2 17.5264768,135 26.5264768,134 L37.1264768,132.9 L37.1264768,132.9 Z M113.326477,128.8 C94.3264768,152.5 68.4264768,145.7 49.0264768,163.4 M40.3264768,128.8 C59.3264768,152.5 85.2264768,145.7 104.626477,163.4" id="Shape"></path>
                        <path d="M56.0264768,96 L97.8264768,96 M56.0264768,73.4 L97.5264768,73.4 M70.5264768,16.7 L83.1264768,16.7 M97.8264768,65.9 C97.8264768,58.2 94.7264768,50.9 89.2264768,45.5 L85.3264768,41.7 C83.9264768,40.4 83.1264768,38.5 83.1264768,36.6 L83.1264768,3.6 C83.1264768,1.6 81.4264768,0 79.4264768,0 L74.2264768,0 C72.2264768,0 70.5264768,1.6 70.5264768,3.6 L70.5264768,36.6 C70.5264768,38.5 69.7264768,40.3 68.3264768,41.7 L64.4264768,45.5 C58.9264768,50.9 55.8264768,58.3 55.8264768,65.9 L55.8264768,105.6 C55.8264768,109.6 59.1264768,112.8 63.1264768,112.8 L90.4264768,112.8 C94.5264768,112.8 97.8264768,109.6 97.8264768,105.6 L97.8264768,65.9 L97.8264768,65.9 Z" id="Shape"></path>
                    </g>
                </g>
            </g>
        </g>
    </g>
</svg>