<?xml version="1.0" encoding="UTF-8"?>
<svg width="70px" height="70px" viewBox="0 0 70 70" version="1.1" xmlns="http://www.w3.org/2000/svg" xmlns:xlink="http://www.w3.org/1999/xlink">
    <title>icon_instagram</title>
    <g id="Page-1" stroke="none" stroke-width="1" fill="none" fill-rule="evenodd">
        <g id="Extra-Large" transform="translate(-160, -6664)" fill-rule="nonzero">
            <g id="Footer" transform="translate(0, 6081)">
                <g id="icon_instagram" transform="translate(160, 583)">
                    <path d="M35,70 C54.33,70 70,54.33 70,35 C70,15.67 54.33,0 35,0 C15.67,0 0,15.67 0,35 C0,54.33 15.67,70 35,70" id="Path" fill="#FFFFFF"></path>
                    <g id="Group" transform="translate(19.8376, 19.8376)" fill="#03368C">
                        <path d="M15.1424144,7.38239287 C10.8424144,7.38239287 7.37241436,10.8824144 7.37241436,15.1824144 C7.37241436,19.4824144 10.8724144,22.9524144 15.1724144,22.9524144 C19.4724144,22.9524144 22.9524144,19.4524144 22.9424359,15.1524144 C22.9424359,10.8524144 19.4424144,7.37241436 15.1424144,7.38239287 L15.1424144,7.38239287 Z M15.1724144,20.2124144 C12.3824144,20.2124144 10.1124144,17.9624144 10.1124144,15.1724144 L10.1124144,15.1724144 C10.1124144,12.3824144 12.3624144,10.1124144 15.1524144,10.1124144 C17.9424144,10.1124144 20.2124144,12.3624144 20.2124144,15.1524144 C20.2124144,17.9424144 17.9624144,20.2124144 15.1724144,20.2124144 L15.1724144,20.2124144 Z" id="Shape"></path>
                        <path d="M23.2324144,5.24241436 L23.2324144,5.24241436 C22.2324144,5.24241436 21.4124144,6.06241436 21.4224144,7.06241436 C21.4224144,8.06241436 22.2424144,8.88241436 23.2424144,8.88241436 C24.2424144,8.88241436 25.0624144,8.06241436 25.0524144,7.06241436 C25.0524144,6.06241436 24.2324144,5.24241436 23.2324144,5.24241436 Z" id="Path"></path>
                        <path d="M30.3124144,15.1324144 C30.3124144,11.0224144 30.2824144,10.5024144 30.2124144,8.88241436 C30.1324144,7.26241436 29.8824144,6.17241436 29.5024144,5.20241436 C29.1124144,4.20241436 28.5924144,3.36241436 27.7524144,2.52241436 C26.9124144,1.68241436 26.0624144,1.16241436 25.0624144,0.782414363 C24.1024144,0.412414363 22.9924144,0.152414363 21.3824144,0.0824143635 C19.7724144,0.0124143635 19.2524144,-0.00758563653 15.1324144,0.00241436347 C11.0124144,0.00241436347 10.5024144,0.0324143635 8.88241436,0.102414363 C7.27241436,0.182414363 6.17241436,0.432414363 5.20241436,0.812414363 C4.20241436,1.20241436 3.36241436,1.72241436 2.52241436,2.56241436 C1.68241436,3.40241436 1.16241436,4.25241436 0.782414363,5.25241436 C0.412414363,6.21241436 0.152414363,7.32241436 0.0824143635,8.93241436 C0.0124143635,10.5424144 -0.00758563653,11.0624144 0.00241436347,15.1824144 C0.00241436347,19.3024144 0.0324143635,19.8124144 0.102414363,21.4324144 C0.182414363,23.0424144 0.432414363,24.1424144 0.812414363,25.1124144 C1.20241436,26.1124144 1.72241436,26.9524144 2.56241436,27.7924144 C3.40241436,28.6324144 4.25241436,29.1524144 5.25241436,29.5324144 C6.21241436,29.9024144 7.32241436,30.1624144 8.93241436,30.2324144 C10.5424144,30.3024144 11.0624144,30.3224144 15.1824144,30.3124144 C19.2924144,30.3124144 19.8124144,30.2824144 21.4324144,30.2124144 C23.0524144,30.1324144 24.1424144,29.8724144 25.1024144,29.5024144 C26.1024144,29.1124144 26.9424144,28.5924144 27.7824144,27.7524144 C28.6224144,26.9124144 29.1424144,26.0624144 29.5224144,25.0624144 C29.8924144,24.1024144 30.1524144,22.9924144 30.2224144,21.3824144 C30.2924144,19.7624144 30.3124144,19.2524144 30.3024144,15.1324144 L30.3124144,15.1324144 Z M27.5124144,21.2624144 C27.4524144,22.7424144 27.2024144,23.5424144 26.9924144,24.0824144 C26.7224144,24.7924144 26.3924144,25.2924144 25.8624144,25.8224144 C25.3324144,26.3524144 24.8324144,26.6824144 24.1224144,26.9624144 C23.5924144,27.1724144 22.7824144,27.4224144 21.3124144,27.4924144 C19.7124144,27.5624144 19.2324144,27.5824144 15.1924144,27.5924144 C11.1424144,27.5924144 10.6624144,27.5924144 9.07241436,27.5124144 L9.07241436,27.5124144 C7.59241436,27.4524144 6.79241436,27.2024144 6.26241436,26.9924144 C5.55241436,26.7224144 5.05241436,26.3924144 4.52241436,25.8624144 C3.99241436,25.3324144 3.66241436,24.8324144 3.38241436,24.1224144 C3.17241436,23.5924144 2.92241436,22.7824144 2.85241436,21.3124144 C2.77241436,19.7124144 2.76241436,19.2324144 2.75241436,15.1924144 C2.74241436,11.1524144 2.75241436,10.6624144 2.83241436,9.07241436 C2.89241436,7.59241436 3.14241436,6.79241436 3.35241436,6.26241436 C3.62241436,5.55241436 3.95241436,5.05241436 4.48241436,4.52241436 C5.01241436,3.99241436 5.51241436,3.66241436 6.22241436,3.38241436 C6.75241436,3.17241436 7.56241436,2.92241436 9.03241436,2.85241436 C10.6324144,2.77241436 11.1124144,2.76241436 15.1524144,2.75241436 C19.2024144,2.75241436 19.6824144,2.75241436 21.2724144,2.83241436 C22.7524144,2.89241436 23.5524144,3.14241436 24.0824144,3.35241436 C24.7924144,3.62241436 25.2924144,3.95241436 25.8224144,4.48241436 C26.3524144,5.01241436 26.6824144,5.51241436 26.9624144,6.22241436 C27.1724144,6.75241436 27.4224144,7.55241436 27.4924144,9.03241436 C27.5724144,10.6324144 27.5824144,11.1124144 27.5924144,15.1524144 C27.5924144,19.2024144 27.5924144,19.6824144 27.5124144,21.2724144 L27.5124144,21.2624144 Z" id="Shape"></path>
                    </g>
                </g>
            </g>
        </g>
    </g>
</svg>