<?xml version="1.0" encoding="UTF-8"?>
<svg width="70px" height="70px" viewBox="0 0 70 70" version="1.1" xmlns="http://www.w3.org/2000/svg" xmlns:xlink="http://www.w3.org/1999/xlink">
    <title>icon_account</title>
    <g id="Page-1" stroke="none" stroke-width="1" fill="none" fill-rule="evenodd">
        <g id="Extra-Large" transform="translate(-1690, -45)" fill-rule="nonzero">
            <g id="icon_account" transform="translate(1690, 45)">
                <path d="M35,70 C54.33,70 70,54.33 70,35 C70,15.67 54.33,0 35,0 C15.67,0 0,15.67 0,35 C0,54.33 15.67,70 35,70" id="Path" fill="#FFFFFF"></path>
                <g id="Group" transform="translate(25.4, 23.63)" fill="#03368C">
                    <circle id="Oval" cx="9.6" cy="5.56" r="5.56"></circle>
                    <path d="M9.6,12.63 C4.3,12.63 0.01,16.93 0,22.23 C0,22.51 0.23,22.74 0.51,22.74 L18.7,22.74 C18.98,22.74 19.21,22.51 19.21,22.23 C19.21,16.93 14.91,12.64 9.61,12.63 L9.6,12.63 Z" id="Path"></path>
                </g>
            </g>
        </g>
    </g>
</svg>