<?xml version="1.0" encoding="UTF-8"?>
<svg width="303px" height="70px" viewBox="0 0 303 70" version="1.1" xmlns="http://www.w3.org/2000/svg" xmlns:xlink="http://www.w3.org/1999/xlink">
    <title>logo</title>
    <g id="Page-1" stroke="none" stroke-width="1" fill="none" fill-rule="evenodd">
        <g id="Extra-Large" transform="translate(-809, -45)" fill="#FFFFFF" fill-rule="nonzero">
            <g id="logo" transform="translate(809, 45)">
                <path d="M285.892914,6.74846626 C285.892914,3.93021472 288.139223,1.9267638 290.978712,1.9267638 C296.171478,1.9267638 298.398338,7.75498466 299.010968,12.5 L300.839133,12.5 L300.839133,0.738113497 L299.205454,0.738113497 C298.301095,1.8404908 297.892676,2.46357362 297.484256,2.46357362 C297.075836,2.46357362 294.664215,0.0383435583 290.26884,0.00958588957 L290.278564,0.00958588957 C290.278564,0.00958588957 290.152149,0 290.152149,0 C282.625556,0.0383435583 280,5.8857362 280,9.56671779 C280,19.7277607 297.075836,17.7147239 297.075836,25.0479294 C297.075836,28.8918712 294.508626,30.8953221 291.474651,30.8953221 C291.348235,30.8953221 291.202371,30.8953221 291.075955,30.8857362 C284.677379,30.5310583 283.0437,22.9582055 282.129617,19.8619632 L280.301453,19.8619632 L280.301453,32.2565184 L282.129617,32.2565184 C282.479691,31.3554448 282.995078,30.2530675 283.850815,30.2530675 C285.076074,30.2530675 287.205692,32.8125 291.484375,32.8125 C298.699791,32.8125 302.96875,28.6234663 302.96875,22.1050613 C302.96875,11.3592791 285.892914,13.8516104 285.892914,6.74846626 Z" id="Path"></path>
                <path d="M130.15625,16.4014571 C130.15625,7.46740798 124.456453,0 116.484375,0 C108.512297,0 102.8125,7.47699387 102.8125,16.4014571 C102.8125,25.3259202 108.493202,32.8125 116.484375,32.8125 C124.475548,32.8125 130.15625,25.3355061 130.15625,16.4014571 Z M116.579849,30.6173313 C111.691581,30.6173313 110.794125,23.2361963 110.794125,16.3918712 C110.794125,9.54754601 111.691581,2.18558282 116.68487,2.18558282 C121.267622,2.18558282 122.174625,9.56671779 122.174625,16.3918712 C122.174625,23.2170245 121.277169,30.6173313 116.589396,30.6173313 L116.579849,30.6173313 Z" id="Shape"></path>
                <path d="M96.2402537,27.108324 L96.2402537,24.7736827 L94.4079517,24.7736827 L94.4079517,26.1273823 C94.4079517,28.7464966 94.008354,30.1884809 92.5756498,30.1884809 C91.396349,30.1884809 91.3476176,28.7464966 91.1526918,26.8336603 C90.5386757,20.9087724 87.7902228,18.2013733 83.4628713,17.5049047 L83.4628713,17.4068105 C89.2716584,16.7103419 93.3943379,14.6111267 93.3943379,9.34346973 C93.3943379,4.07581278 89.5737933,1.09375 83.0047958,1.09375 L66.71875,1.09375 L66.71875,3.05563341 C69.876547,3.05563341 70.6952351,3.85019619 70.6952351,5.75322309 L70.6952351,28.5110706 C70.6952351,30.4140975 69.8862933,31.2086603 66.71875,31.2086603 L66.71875,33.1607343 L81.8937191,33.1607343 L81.8937191,31.2086603 C78.735922,31.2086603 77.9172339,30.4140975 77.9172339,28.5110706 L77.9172339,18.0640415 L78.5799814,18.0640415 C82.3615408,18.0640415 82.6539295,19.8297365 83.0632735,27.2848935 C83.2679455,31.5716087 85.353651,33.90625 89.8856745,33.90625 C94.417698,33.90625 96.25,31.3459922 96.25,27.0985146 L96.2402537,27.108324 Z M79.0672958,15.8373038 L77.887995,15.8373038 L77.8977413,15.8373038 L77.8977413,5.76303251 C77.8977413,3.86000561 78.7066832,3.06544283 80.6949257,3.06544283 C84.1548577,3.06544283 85.2269493,5.48836883 85.2269493,9.77508408 C85.2269493,14.0617993 82.8293626,15.8373038 79.0575495,15.8373038 L79.0672958,15.8373038 Z" id="Shape"></path>
                <polygon id="Path" points="275.072656 0.54140625 275.072656 0.55234375 275.083594 0.55234375"></polygon>
                <path d="M227.897727,28.0171287 L216.641659,0.00980648536 L216.632006,0.00980648536 C216.632006,0.00980648536 214.102769,0 214.102769,0 L203.59968,27.7327406 C202.798433,29.8803609 201.582083,30.6648797 199.0625,30.8610094 L199.0625,32.8125 L211.0812,32.8125 L211.0812,30.8610094 C208.358892,30.8610094 206.447485,30.4001046 206.447485,28.9095188 C206.447485,28.3995816 206.601942,27.9288703 206.746745,27.3699006 L208.561617,22.0057531 L217.848356,22.0057531 L220.165214,27.9288703 C220.377593,28.3407427 220.570664,29.0075837 220.570664,29.4194561 C220.570664,30.6844927 219.363967,30.8610094 216.438934,30.8610094 L216.438934,32.8125 L231.875,32.8125 L231.875,30.8610094 C229.451953,30.6844927 228.79551,30.2530073 227.888074,28.0171287 L227.897727,28.0171287 Z M209.275982,20.0542626 L212.91538,10.1693253 L213.021569,10.1693253 L216.960227,20.0542626 L209.285635,20.0542626 L209.275982,20.0542626 Z" id="Shape"></path>
                <path d="M8.11009539,1.09375 L8.11009539,3.05563341 C12.0121224,3.05563341 12.8059171,3.85019619 12.8059171,5.75322309 L12.8059171,27.1966087 C12.8059171,29.8647702 11.1992001,31.483324 8.19616952,31.483324 C5.40354233,31.483324 3.64380465,29.8451513 3.29950815,28.403167 C3.79682532,28.638593 4.19850457,28.6876401 4.80102345,28.6876401 C7.79449026,28.6876401 8.59784877,26.5001401 8.59784877,24.4009249 C8.59784877,21.5561939 6.5990163,20.2907791 4.64800278,20.2907791 C2.00839626,20.2907791 0,22.1153307 0,25.509389 C0,30.3160034 3.79682532,33.90625 9.15254869,33.90625 C15.6081081,33.90625 19.9022506,31.2380886 19.9022506,25.6074832 L19.9022506,5.76303251 C19.9022506,3.86000561 20.7151729,3.06544283 24.0625,3.06544283 L24.0625,1.09375 L8.11009539,1.09375 Z" id="Path"></path>
                <path d="M154.232796,15.8570336 L154.232796,15.7600344 C158.249989,15.0228402 161.363795,13.0925554 161.363795,8.88278861 C161.363795,3.7709289 158.557526,1.09375 151.618737,1.09375 L151.609127,1.09375 C151.609127,1.09375 134.53125,1.10344992 134.53125,1.10344992 L134.53125,3.03373471 C137.645055,3.03373471 138.452338,3.81942852 138.452338,5.70121369 L138.452338,28.2050363 C138.452338,30.0868215 137.654666,30.8725153 134.53125,30.8725153 L134.53125,32.8125 L151.003665,32.8125 C158.528694,32.8125 162.96875,29.3108276 162.96875,23.6848719 C162.96875,18.8058104 159.345588,15.944333 154.232796,15.8376338 L154.232796,15.8570336 Z M145.602558,5.43931575 C145.602558,3.96492737 146.20802,3.04343463 148.27428,3.04343463 C151.628348,3.04343463 153.339019,5.40051606 153.339019,8.94098815 C153.339019,13.276854 151.272759,15.1198394 147.111408,15.1198394 L145.602558,15.1198394 L145.602558,5.43931575 L145.602558,5.43931575 Z M149.120005,30.8725988 L149.120005,30.8725988 C146.899977,30.8822152 145.602558,30.0480218 145.602558,27.9334385 L145.602558,17.3217221 L147.851417,17.3217221 C153.021872,17.3217221 154.943974,18.4857129 154.943974,24.9652619 C154.943974,28.6512328 152.42602,30.8628154 149.120005,30.8628154 L149.120005,30.8725988 Z" id="Shape"></path>
                <path d="M45.7699887,30.8816247 C42.7843468,30.8816247 41.9664977,30.0956906 41.9664977,28.2133298 L41.9664977,17.3169834 C46.7454955,17.3169834 48.0954392,18.6656852 48.9724099,22.5759502 L50.8248874,22.5759502 L50.8248874,9.57407655 L48.9724099,9.57407655 C48.0954392,13.7657254 46.7454955,15.1047243 41.9664977,15.1047243 L41.9664977,5.70262313 C41.9664977,3.82026231 42.7843468,3.03432816 45.464527,3.03432816 C52.2635135,3.03432816 54.638232,8.93368576 55.4560811,13.2708779 L57.3085586,13.2708779 L57.3085586,1.10345289 L57.3085586,1.10345289 C57.3085586,1.10345289 30.625,1.09375 30.625,1.09375 L30.625,3.03432816 C33.8175676,3.03432816 34.6452703,3.82026231 34.6452703,5.70262313 L34.6452703,28.2133298 C34.6452703,30.0956906 33.807714,30.8816247 30.625,30.8816247 L30.625,32.8125 L57.96875,32.8125 L57.96875,20.1890391 L56.1162725,20.1890391 C55.4068131,23.5947537 53.022241,30.8816247 45.7699887,30.8816247 Z" id="Path"></path>
                <path d="M256.038736,21.9937768 L255.942321,21.9937768 L249.588532,1.09375 L237.34375,1.09375 L237.34375,3.03432816 C240.457974,3.03432816 241.267865,3.82026231 241.267865,5.70262313 L241.267865,26.8161135 C241.267865,30.1733137 239.81199,30.6002409 237.34375,30.8719218 L237.34375,32.8027971 L247.872334,32.8027971 L247.872334,30.8719218 C244.950941,30.590538 243.591481,30.1830166 243.591481,26.8161135 L243.591481,5.88697805 L243.687897,5.88697805 L251.902507,32.8125 L255.170996,32.8125 L263.636286,4.64500803 L263.742343,4.64500803 L263.742343,28.2133298 C263.742343,30.0956906 262.942094,30.8816247 259.808587,30.8816247 L259.808587,32.8125 L274.53125,32.8125 L274.53125,30.8816247 C271.397743,30.8816247 270.597493,30.0956906 270.597493,28.2133298 L270.597493,5.70262313 C270.597493,3.82026231 271.397743,3.03432816 274.53125,3.03432816 L274.53125,1.09375 L262.392525,1.09375 L256.038736,21.9937768 Z" id="Path"></path>
                <path d="M183.198353,0 C175.209969,0 169.53125,7.47699387 169.53125,16.4014571 C169.53125,25.3259202 175.209969,32.8125 183.198353,32.8125 C191.186736,32.8125 196.875,25.3355061 196.875,16.4014571 C196.875,7.46740798 191.186736,0 183.198353,0 Z M183.303338,30.6173313 C178.416776,30.6173313 177.519634,23.2361963 177.519634,16.3918712 C177.519634,9.54754601 178.416776,2.18558282 183.408322,2.18558282 C187.989474,2.18558282 188.896161,9.56671779 188.896161,16.3918712 C188.896161,23.2170245 187.999018,30.6173313 183.312882,30.6173313 L183.303338,30.6173313 Z" id="Shape"></path>
                <polygon id="Path" points="90.78125 54.4530387 97.2291462 54.4530387 97.2291462 70 99.6458538 70 99.6458538 54.4530387 106.09375 54.4530387 106.09375 52.5 90.78125 52.5"></polygon>
                <path d="M129.556452,57.6339779 C129.556452,54.801105 127.843658,52.5 123.869593,52.5 L118.125,52.5 L118.125,70 L120.444007,70 L120.444007,62.7679558 L123.552053,62.7679558 L128.546096,70 L131.25,70 L125.967284,62.5069061 C128.469117,61.839779 129.566074,59.9157459 129.566074,57.6339779 L129.556452,57.6339779 Z M120.434384,60.8149171 L120.434384,54.4530387 L123.859971,54.4530387 C126.46765,54.4530387 127.25669,56.0290055 127.25669,57.6339779 C127.25669,59.2389503 126.46765,60.8149171 123.859971,60.8149171 L120.434384,60.8149171 Z" id="Shape"></path>
                <path d="M149.638792,52.5 L142.1875,70 L144.438211,70 L146.516528,65.0980663 L154.149792,65.0980663 L156.228109,70 L158.59375,70 L151.142458,52.5 L149.638792,52.5 L149.638792,52.5 Z M147.292305,63.2030387 L150.328371,56 L153.364437,63.2030387 L147.292305,63.2030387 L147.292305,63.2030387 Z" id="Shape"></path>
                <path d="M176.100024,52.5 L170.625,52.5 L170.625,70 L176.100024,70 C182.960883,70 185.9375,66.0649171 185.9375,61.25 C185.9375,56.4350829 182.960883,52.5 176.100024,52.5 L176.100024,52.5 Z M176.129302,67.9599448 L172.977016,67.9599448 L172.977016,54.5400552 L176.129302,54.5400552 C181.86783,54.5400552 183.48789,57.75 183.48789,61.25 C183.48789,64.75 181.86783,67.9599448 176.129302,67.9599448 Z" id="Shape"></path>
                <polygon id="Path" points="199.0625 70 210 70 210 68.0469613 201.469749 68.0469613 201.469749 61.7430939 208.491724 61.7430939 208.491724 59.7900552 201.469749 59.7900552 201.469749 54.4530387 210 54.4530387 210 52.5 199.0625 52.5"></polygon>
            </g>
        </g>
    </g>
</svg>