<?xml version="1.0" encoding="UTF-8"?>
<svg width="111px" height="172px" viewBox="0 0 111 172" version="1.1" xmlns="http://www.w3.org/2000/svg" xmlns:xlink="http://www.w3.org/1999/xlink">
    <title>icon_services_portfolio_blue</title>
    <g id="Page-1" stroke="none" stroke-width="1" fill="none" fill-rule="evenodd" stroke-linecap="round" stroke-linejoin="round">
        <g id="Extra-Large" transform="translate(-345, -1603)" stroke="#03368C" stroke-width="6">
            <g id="Our-services" transform="translate(160, 1392)">
                <g id="Portfolio" transform="translate(0, 214)">
                    <g id="icon_services_portfolio_blue" transform="translate(188, 0)">
                        <path d="M32.2,12.5 L26.2,12.5 C24.4,12.5 22.9,13.9 22.9,15.7 C22.5,34.2 18.6,47.4 11.9,65.3 C4,86.6 7.10542736e-15,108.8 7.10542736e-15,131.5 L7.10542736e-15,147.7 C7.10542736e-15,151.4 3,154.3 6.8,154.3 L9.2,154.3 M72.6,12.5 L78.6,12.5 C80.4,12.5 81.9,13.9 81.9,15.7 C82.3,34.2 86.2,47.4 92.9,65.3 C100.8,86.6 104.8,108.8 104.8,131.5 L104.8,147.7 C104.8,151.4 101.8,154.3 98,154.3 L95.6,154.3 M74.9,68.9 C67.5,48.8 63.6,27.7 63.6,6.3 L63.6,5.5 C63.6,2.5 61.1,0 58,0 L46.7,0 C43.6,0 41.1,2.5 41.1,5.5 L41.1,6.3 C41.1,27.6 37.3,48.8 29.8,68.9 C22.4,89 18.5,110.1 18.5,131.5 L18.5,154.4 C18.5,160.5 23.5,165.4 29.8,165.4 L74.8,165.4 C81,165.4 86.1,160.5 86.1,154.4 L86.1,131.5 C86.1,110.1 82.3,89 74.8,68.9 L74.8,68.9 L74.9,68.9 Z M78.4,79.3 C63.2,91.2 41.6,91.2 26.4,79.3 M41.1,126.8 C41.1,132.9 46.1,137.8 52.4,137.8 C58.7,137.8 63.7,132.9 63.7,126.8 C63.7,120.7 58.7,115.8 52.4,115.8 C46.1,115.8 41.1,120.7 41.1,126.8 Z M40.5,22 L64.4,22" id="Shape"></path>
                    </g>
                </g>
            </g>
        </g>
    </g>
</svg>