<?xml version="1.0" encoding="UTF-8"?>
<svg width="164px" height="161px" viewBox="0 0 164 161" version="1.1" xmlns="http://www.w3.org/2000/svg" xmlns:xlink="http://www.w3.org/1999/xlink">
    <title>icon_services_training_blue</title>
    <g id="Page-1" stroke="none" stroke-width="1" fill="none" fill-rule="evenodd" stroke-linecap="round" stroke-linejoin="round">
        <g id="Extra-Large" transform="translate(-318, -2181)" stroke="#03368C" stroke-width="6">
            <g id="Our-services" transform="translate(160, 1392)">
                <g id="Training" transform="translate(0, 792)">
                    <g id="icon_services_training_blue" transform="translate(161, 0)">
                        <path d="M114.3,42.275 L37.8,117.175 M12.7,106.675 L37.8,117.175 L48.6,141.775 M96.4,24.675 L132.3,59.775 M111.1,10.375 L147,45.475 M150,7.275 C140.1,-2.425 124,-2.425 114.1,7.275 C114.1,7.275 114,7.275 114,7.475 L12.7,106.675 L0,154.275 L48.6,141.775 L149.9,42.575 C159.9,32.975 160.1,17.275 150.3,7.375 C150.3,7.375 150.2,7.275 150.1,7.175 L150.1,7.175 L150,7.275 Z" id="Shape"></path>
                    </g>
                </g>
            </g>
        </g>
    </g>
</svg>